<?xml version="1.0" encoding="iso-8859-1"?>
<!-- Generator: Adobe Illustrator 19.0.0, SVG Export Plug-In . SVG Version: 6.00 Build 0)  -->
<svg version="1.1" id="Capa_1" xmlns="http://www.w3.org/2000/svg" xmlns:xlink="http://www.w3.org/1999/xlink" x="0px" y="0px"
	 viewBox="0 0 480 480" style="enable-background:new 0 0 480 480;" xml:space="preserve">
<g>
	<g>
		<path d="M280,48H120c-4.418,0-8,3.582-8,8v96c0,4.418,3.582,8,8,8h160c4.418,0,8-3.582,8-8V56C288,51.582,284.418,48,280,48z
			 M272,144H128V64h144V144z"/>
	</g>
</g>
<g>
	<g>
		<rect x="240" y="112" width="16" height="16"/>
	</g>
</g>
<g>
	<g>
		<rect x="208" y="112" width="16" height="16"/>
	</g>
</g>
<g>
	<g>
		<rect x="176" y="112" width="16" height="16"/>
	</g>
</g>
<g>
	<g>
		<path d="M256,272h-29.688l36.736-68.208c2.097-3.889,0.645-8.741-3.243-10.839c-2.689-1.45-5.968-1.243-8.453,0.535l-112,80
			c-3.596,2.566-4.432,7.562-1.865,11.159c1.502,2.104,3.928,3.354,6.513,3.353h29.688l-36.736,68.208
			c-2.097,3.889-0.645,8.741,3.243,10.839c2.689,1.45,5.968,1.243,8.453-0.535l112-80c3.596-2.566,4.432-7.562,1.865-11.159
			C261.011,273.249,258.585,272,256,272z M167.368,333.48l26.76-49.688c2.094-3.89,0.638-8.742-3.252-10.836
			c-1.167-0.628-2.471-0.956-3.796-0.956h-18.12l63.672-45.48l-26.76,49.688c-2.094,3.89-0.638,8.742,3.252,10.836
			c1.167,0.628,2.471,0.956,3.796,0.956h18.12L167.368,333.48z"/>
	</g>
</g>
<g>
	<g>
		<path d="M432,40h-8V8c0-4.418-3.582-8-8-8s-8,3.582-8,8v32h-16V8c0-4.418-3.582-8-8-8s-8,3.582-8,8v32h-8c-4.418,0-8,3.582-8,8v48
			c0.024,19.001,13.389,35.373,32,39.2V368c0,6.627-5.373,12-12,12c-6.627,0-12-5.373-12-12V189.184
			c-0.018-11.297-6.809-21.482-17.232-25.84L328,154.52V40c-0.026-22.08-17.92-39.974-40-40H112C89.92,0.026,72.026,17.92,72,40v376
			H48c-4.418,0-8,3.582-8,8v48c0,4.418,3.582,8,8,8h304c4.418,0,8-3.582,8-8v-48c0-4.418-3.582-8-8-8h-24V171.68l16.728,6.48
			c4.41,1.89,7.27,6.226,7.272,11.024V368c0,15.464,12.536,28,28,28c15.464,0,28-12.536,28-28V135.2
			c18.611-3.827,31.976-20.199,32-39.2V48C440,43.582,436.418,40,432,40z M88,40c0-13.255,10.745-24,24-24h176
			c13.255,0,24,10.745,24,24v376H88V40z M344,432v32H56v-32H344z M424,96c0,13.255-10.745,24-24,24s-24-10.745-24-24V56h48V96z"/>
	</g>
</g>
<g>
</g>
<g>
</g>
<g>
</g>
<g>
</g>
<g>
</g>
<g>
</g>
<g>
</g>
<g>
</g>
<g>
</g>
<g>
</g>
<g>
</g>
<g>
</g>
<g>
</g>
<g>
</g>
<g>
</g>
</svg>
