<?xml version="1.0" encoding="iso-8859-1"?>
<!-- Generator: Adobe Illustrator 19.0.0, SVG Export Plug-In . SVG Version: 6.00 Build 0)  -->
<svg version="1.1" id="Capa_1" xmlns="http://www.w3.org/2000/svg" xmlns:xlink="http://www.w3.org/1999/xlink" x="0px" y="0px"
	 viewBox="0 0 464 464" style="enable-background:new 0 0 464 464;" xml:space="preserve">
<g>
	<g>
		<path d="M384.8,33.6c-1.385-1.039-3.069-1.6-4.8-1.6h-8l14.4-19.2c2.651-3.535,1.935-8.549-1.6-11.2
			c-3.535-2.651-8.549-1.935-11.2,1.6l-24,32c-2.651,3.535-1.935,8.549,1.6,11.2c1.385,1.039,3.069,1.6,4.8,1.6h8l-14.4,19.2
			c-2.655,3.532-1.945,8.547,1.587,11.202c3.532,2.655,8.547,1.944,11.202-1.587c0.004-0.005,0.007-0.01,0.011-0.015l24-32
			C389.051,41.266,388.335,36.251,384.8,33.6z"/>
	</g>
</g>
<g>
	<g>
		<path d="M404,296h-16c-18.396,0.01-35.892,7.959-48,21.808V271.36c27.527-3.973,47.967-27.547,48-55.36v-64c0-4.418-3.582-8-8-8
			h-16V96h-16v48h-32V96h-16v48h-16c-4.418,0-8,3.582-8,8v64c0.033,27.813,20.473,51.387,48,55.36v46.448
			c-12.108-13.849-29.604-21.798-48-21.808h-16c-4.418,0-8,3.582-8,8c0.04,35.33,28.67,63.96,64,64h8v40
			c-0.026,22.08-17.92,39.974-40,40h-80c-22.08-0.026-39.974-17.92-40-40V296h8c44.408,0,72-33.72,72-88c0-4.418-3.582-8-8-8
			c-28.698,0.031-55.575,14.067-72,37.6V184h8c44.408,0,72-33.72,72-88c0-4.418-3.582-8-8-8c-28.698,0.031-55.575,14.067-72,37.6V72
			h8c35.33-0.04,63.96-28.67,64-64c0-4.418-3.582-8-8-8h-16c-23.298,0.014-44.747,12.688-56,33.088
			C144.747,12.689,123.298,0.015,100,0H84c-4.418,0-8,3.582-8,8c0.04,35.33,28.67,63.96,64,64h8v53.6
			c-16.425-23.533-43.302-37.569-72-37.6H60c-4.418,0-8,3.582-8,8c0.057,48.577,39.423,87.943,88,88h8v53.6
			c-16.425-23.533-43.302-37.569-72-37.6H60c-4.418,0-8,3.582-8,8c0.057,48.577,39.423,87.943,88,88h8v112
			c0.035,30.913,25.087,55.965,56,56h80c30.913-0.035,55.965-25.087,56-56v-40h8c35.33-0.04,63.96-28.67,64-64
			C412,299.582,408.419,296,404,296z M316,352c-23.413-0.029-43.401-16.92-47.336-40H276c23.413,0.029,43.401,16.92,47.336,40H316z
			 M227.688,216.48C226.096,238.488,217.096,280,172,280h-7.56C168.215,246.709,194.414,220.398,227.688,216.48z M227.688,104.48
			C226.096,126.488,217.096,168,172,168h-7.56C168.215,134.709,194.414,108.398,227.688,104.48z M212,16h7.336
			c-3.935,23.08-23.923,39.971-47.336,40h-7.336C168.599,32.92,188.587,16.03,212,16z M140,56c-23.413-0.029-43.401-16.92-47.336-40
			H100c23.413,0.029,43.401,16.92,47.336,40H140z M140,168c-36.653-0.044-67.44-27.579-71.56-64H76
			c36.653,0.044,67.44,27.579,71.56,64H140z M140,280c-36.653-0.044-67.44-27.579-71.56-64H76c36.653,0.044,67.44,27.579,71.56,64
			H140z M332,256c-22.091,0-40-17.909-40-40v-56h80v56C372,238.092,354.092,256,332,256z M348,352h-7.336
			c3.935-23.08,23.923-39.971,47.336-40h7.336C391.402,335.081,371.414,351.971,348,352z"/>
	</g>
</g>
<g>
</g>
<g>
</g>
<g>
</g>
<g>
</g>
<g>
</g>
<g>
</g>
<g>
</g>
<g>
</g>
<g>
</g>
<g>
</g>
<g>
</g>
<g>
</g>
<g>
</g>
<g>
</g>
<g>
</g>
</svg>
