<?xml version="1.0" encoding="iso-8859-1"?>
<!-- Generator: Adobe Illustrator 19.0.0, SVG Export Plug-In . SVG Version: 6.00 Build 0)  -->
<svg version="1.1" id="Capa_1" xmlns="http://www.w3.org/2000/svg" xmlns:xlink="http://www.w3.org/1999/xlink" x="0px" y="0px"
	 viewBox="0 0 480.007 480.007" style="enable-background:new 0 0 480.007 480.007;" xml:space="preserve">
<g>
	<g>
		<path d="M480.002,224.007c0.009-21.096-9.242-41.132-25.304-54.808c6.122-9.986,9.344-21.479,9.304-33.192
			c-0.042-32.452-24.333-59.753-56.56-63.568c0.374-2.795,0.562-5.612,0.56-8.432c0.083-35.267-28.439-63.923-63.706-64.006
			c-20.752-0.049-40.234,9.99-52.238,26.918c-20.372-28.75-60.193-35.541-88.943-15.169c-5.876,4.164-11.005,9.293-15.169,15.169
			c-20.485-28.74-60.389-35.432-89.129-14.948C79.542,25.709,69.44,48.976,72.562,72.439c-32.227,3.815-56.518,31.116-56.56,63.568
			c-0.04,11.713,3.182,23.206,9.304,33.192c-30.265,25.792-33.891,71.236-8.099,101.501c2.48,2.911,5.189,5.619,8.099,8.099
			c-6.125,9.991-9.347,21.489-9.304,33.208c0.04,35.33,28.67,63.96,64,64h48v88h-24c-4.418,0-8,3.582-8,8s3.582,8,8,8h272
			c4.418,0,8-3.582,8-8s-3.582-8-8-8h-24v-88h48c35.33-0.04,63.96-28.67,64-64c0.04-11.713-3.182-23.206-9.304-33.192
			C470.76,265.139,480.01,245.102,480.002,224.007z M80.002,359.935c-26.471-0.026-47.934-21.457-48-47.928
			c-0.031-10.88,3.677-21.44,10.504-29.912c2.757-3.452,2.194-8.486-1.258-11.244c-0.167-0.134-0.34-0.261-0.518-0.38
			c-25.661-17.264-32.469-52.061-15.206-77.723c4.039-6.003,9.202-11.167,15.206-15.205c3.662-2.471,4.628-7.444,2.156-11.106
			c-0.12-0.178-0.247-0.35-0.38-0.518c-6.827-8.472-10.535-19.032-10.504-29.912c0.026-26.499,21.501-47.974,48-48l2.072,0.112
			c2.587,0.129,5.07-1.03,6.632-3.096c1.59-2.04,2.088-4.726,1.336-7.2c-7.494-25.428,7.045-52.117,32.474-59.611
			c22.605-6.662,46.702,4.072,56.87,25.331c0,0.08,0,0.16-0.056,0.24c-0.997,2.999-1.768,6.069-2.304,9.184
			c-0.096,0.536-0.168,1.08-0.248,1.6c-0.957,5.906-1.03,11.921-0.216,17.848c-32.236,3.817-56.53,31.13-56.56,63.592
			c-0.04,11.713,3.182,23.206,9.304,33.192c-0.144,0.128-0.264,0.264-0.408,0.392l-37.24-37.24
			c-3.178-3.069-8.243-2.981-11.312,0.197c-2.994,3.1-2.994,8.015,0,11.115l37.696,37.696
			c-22.423,30.402-17.503,72.97,11.264,97.456c-3.087,5.035-5.447,10.48-7.008,16.176l-28.64-28.64
			c-3.178-3.07-8.242-2.982-11.312,0.196c-2.994,3.1-2.994,8.015,0,11.116l37.832,37.832c0.064,1.112,0.08,2.232,0.2,3.32
			c0.08,0.752,0.232,1.472,0.336,2.208c0.208,1.48,0.416,2.952,0.728,4.4c0.184,0.864,0.44,1.696,0.656,2.544
			c0.328,1.28,0.656,2.568,1.064,3.816c0.288,0.888,0.632,1.736,0.96,2.608c0.44,1.168,0.88,2.344,1.392,3.48
			c0.384,0.864,0.8,1.704,1.224,2.544c0.544,1.096,1.104,2.176,1.704,3.2c0.472,0.8,0.976,1.6,1.488,2.4
			c0.64,1.016,1.296,2.008,1.992,2.976c0.552,0.8,1.128,1.544,1.72,2.296c0.728,0.944,1.488,1.848,2.272,2.744
			c0.632,0.72,1.272,1.432,1.928,2.12c0.8,0.864,1.688,1.688,2.568,2.504c0.44,0.416,0.848,0.88,1.304,1.28H80.002z
			 M232.002,464.007h-88v-88h88V464.007z M240.002,104.007c-4.418,0-8,3.582-8,8v56.688l-36.344-36.344
			c-3.178-3.069-8.243-2.981-11.312,0.197c-2.994,3.1-2.994,8.015,0,11.115l47.656,47.656v109.376l-34.344-34.344
			c-3.178-3.07-8.242-2.982-11.312,0.196c-2.994,3.1-2.994,8.015,0,11.116l45.656,45.656v36.688h-48
			c-26.499-0.026-47.974-21.501-48-48c-0.031-10.88,3.677-21.44,10.504-29.912c2.757-3.452,2.194-8.486-1.258-11.244
			c-0.167-0.134-0.34-0.261-0.518-0.38c-25.661-17.264-32.469-52.061-15.206-77.723c4.039-6.003,9.202-11.167,15.206-15.205
			c3.662-2.471,4.628-7.444,2.156-11.106c-0.12-0.178-0.247-0.35-0.38-0.518c-6.827-8.472-10.535-19.032-10.504-29.912
			c0.026-26.499,21.501-47.974,48-48l2.072,0.112c2.59,0.144,5.079-1.018,6.632-3.096c1.59-2.04,2.088-4.726,1.336-7.2
			c-1.348-4.482-2.036-9.136-2.04-13.816c0.004-2.953,0.286-5.899,0.84-8.8c0-0.112,0-0.232,0.048-0.344
			c0.58-2.888,1.418-5.718,2.504-8.456c7.223-18.327,24.909-30.38,44.608-30.4c19.699,0.02,37.385,12.073,44.608,30.4
			c1.089,2.756,1.927,5.605,2.504,8.512c0,0.112,0,0.232,0.048,0.344c0.551,2.882,0.832,5.81,0.84,8.744
			c-0.004,4.68-0.692,9.334-2.04,13.816c-0.752,2.474-0.254,5.16,1.336,7.2c1.559,2.07,4.044,3.23,6.632,3.096l2.072-0.112
			c26.499,0.026,47.974,21.501,48,48c0.031,10.88-3.677,21.44-10.504,29.912c-2.757,3.452-2.194,8.486,1.258,11.244
			c0.167,0.134,0.34,0.261,0.518,0.38c25.661,17.264,32.469,52.061,15.205,77.723c-4.039,6.003-9.202,11.167-15.205,15.205
			c-3.662,2.471-4.628,7.444-2.156,11.106c0.12,0.178,0.247,0.35,0.38,0.518c6.827,8.472,10.535,19.032,10.504,29.912
			c-0.026,26.499-21.501,47.974-48,48h-48v-109.24c0.597-0.295,1.154-0.666,1.656-1.104l52-52c3.07-3.178,2.982-8.242-0.196-11.312
			c-3.1-2.994-8.015-2.994-11.116,0l-42.344,42.344V112.007C248.002,107.588,244.42,104.007,240.002,104.007z M336.002,464.007h-88
			v-88h88V464.007z M437.117,281.577c0.12,0.178,0.247,0.35,0.38,0.518c6.827,8.472,10.535,19.032,10.504,29.912
			c-0.026,26.499-21.501,47.974-48,48H338.29c0.456-0.4,0.864-0.864,1.304-1.28c0.88-0.8,1.736-1.64,2.568-2.504
			c0.656-0.688,1.296-1.4,1.928-2.12c0.8-0.896,1.544-1.8,2.272-2.744c0.592-0.752,1.168-1.512,1.72-2.296
			c0.696-0.968,1.352-1.96,1.992-2.976c0.512-0.8,1.016-1.6,1.488-2.4c0.6-1.056,1.16-2.136,1.704-3.2
			c0.416-0.84,0.8-1.68,1.224-2.544c0.512-1.136,0.952-2.312,1.392-3.48c0.328-0.872,0.672-1.72,0.96-2.608
			c0.408-1.248,0.736-2.536,1.064-3.816c0.216-0.848,0.472-1.68,0.656-2.544c0.312-1.448,0.52-2.92,0.728-4.4
			c0.104-0.736,0.256-1.456,0.336-2.208c0.249-2.285,0.375-4.582,0.376-6.88c0.04-11.713-3.182-23.206-9.304-33.192
			c15.099-12.897,24.189-31.468,25.112-51.304l29.848-29.848c3.07-3.178,2.982-8.242-0.196-11.312c-3.1-2.994-8.015-2.994-11.116,0
			l-20.488,20.488c-3.582-14.653-11.685-27.808-23.16-37.6c6.129-9.997,9.351-21.505,9.304-33.232
			c-0.042-32.452-24.333-59.753-56.56-63.568c0.806-5.928,0.725-11.944-0.24-17.848c-0.08-0.544-0.152-1.088-0.248-1.6
			c-0.536-3.115-1.307-6.185-2.304-9.184c0-0.08,0-0.16-0.056-0.24c11.439-23.915,40.098-34.029,64.013-22.59
			c21.259,10.168,31.992,34.266,25.331,56.87c-0.752,2.474-0.254,5.16,1.336,7.2c1.562,2.066,4.045,3.225,6.632,3.096l2.096-0.136
			c26.499,0.026,47.974,21.501,48,48c0.031,10.88-3.677,21.44-10.504,29.912c-2.757,3.452-2.194,8.486,1.258,11.244
			c0.167,0.134,0.34,0.261,0.518,0.38c25.661,17.264,32.469,52.061,15.205,77.723c-4.039,6.003-9.202,11.167-15.205,15.205
			C435.611,272.942,434.646,277.915,437.117,281.577z"/>
	</g>
</g>
<g>
</g>
<g>
</g>
<g>
</g>
<g>
</g>
<g>
</g>
<g>
</g>
<g>
</g>
<g>
</g>
<g>
</g>
<g>
</g>
<g>
</g>
<g>
</g>
<g>
</g>
<g>
</g>
<g>
</g>
</svg>
