<?xml version="1.0" encoding="iso-8859-1"?>
<!-- Generator: Adobe Illustrator 19.0.0, SVG Export Plug-In . SVG Version: 6.00 Build 0)  -->
<svg version="1.1" id="Capa_1" xmlns="http://www.w3.org/2000/svg" xmlns:xlink="http://www.w3.org/1999/xlink" x="0px" y="0px"
	 viewBox="0 0 480.116 480.116" style="enable-background:new 0 0 480.116 480.116;" xml:space="preserve">
<g>
	<g>
		<path d="M420.618,297.492c-36.743-48.769-90.229-82.223-150.16-93.92c-0.048-0.12-0.12-0.224-0.168-0.344
			c-0.553-1.332-1.194-2.626-1.92-3.872c-0.28-0.512-0.512-1.04-0.8-1.536c-0.871-1.355-1.842-2.644-2.904-3.856
			c-0.256-0.304-0.48-0.624-0.752-0.92c-1.17-1.254-2.435-2.414-3.784-3.472c-0.24-0.192-0.456-0.4-0.696-0.584
			c-1.407-1.039-2.894-1.964-4.448-2.768c-0.192-0.096-0.352-0.24-0.536-0.336V18.06c0.121-9.852-7.767-17.937-17.619-18.058
			c-7.364-0.091-14.027,4.353-16.773,11.186c-24.025,57.999-25.495,122.885-4.12,181.912c-0.544,0.592-0.968,1.264-1.464,1.896
			c-0.496,0.632-1.216,1.44-1.736,2.24c-1.061,1.606-1.977,3.303-2.736,5.072c-0.168,0.392-0.264,0.8-0.416,1.216
			c-0.569,1.467-1.034,2.972-1.392,4.504c-0.144,0.672-0.216,1.368-0.328,2.056c-0.136,0.856-0.352,1.696-0.416,2.576L64.954,295.7
			c-8.498,5.008-11.399,15.912-6.512,24.48c3.156,5.56,9.055,8.996,15.448,9c0.781-0.003,1.561-0.054,2.336-0.152
			c52.073-6.793,100.621-30.02,138.584-66.304l-6.496,201.392h-40.256v16h144v-16h-40.256l-7.016-217.56l132.672,77.328
			c8.489,4.949,19.383,2.079,24.332-6.41c0.034-0.058,0.067-0.116,0.1-0.174C425.489,311.042,424.987,303.237,420.618,297.492z
			 M215.578,239.012c-36.836,40.735-86.976,67.02-141.432,74.144c-0.739,0.095-1.461-0.27-1.824-0.92
			c-0.531-0.945-0.225-2.14,0.696-2.712l137.6-80.192c1.316,2.75,3.007,5.305,5.024,7.592L215.578,239.012z M234.858,17.292
			c0.278-0.7,0.951-1.164,1.704-1.176c1.048,0.026,1.878,0.895,1.856,1.944v164.456c-2.926,0.136-5.82,0.675-8.6,1.6
			C211.087,129.755,212.88,70.422,234.858,17.292z M224.322,464.116l7-217.208c0.368,0.104,0.744,0.144,1.12,0.232
			c0.632,0.152,1.272,0.288,1.92,0.4c0.864,0.16,1.736,0.28,2.616,0.36c0.376,0.04,0.752,0.056,1.136,0.08
			c0.384,0.024,0.936,0.08,1.4,0.088c0.16,0,0.304,0.048,0.464,0.048h0.144c1.505-0.007,3.008-0.122,4.496-0.344
			c0.104,0,0.2-0.048,0.304-0.064c0.248,0,0.488-0.112,0.736-0.152c0.64-0.112,1.256-0.256,1.872-0.4
			c0.416-0.104,0.848-0.152,1.264-0.272l7,217.232H224.322z M251.13,227.652c-0.051,0.027-0.099,0.059-0.144,0.096
			c-1.303,1.178-2.776,2.154-4.368,2.896l-0.136,0.056c-0.76,0.326-1.543,0.594-2.344,0.8l-0.208,0.072
			c-0.256,0.064-0.512,0.128-0.8,0.176c-0.833,0.164-1.679,0.26-2.528,0.288c-0.549,0.028-1.099,0.028-1.648,0
			c-0.636-0.031-1.269-0.1-1.896-0.208c-0.783-0.154-1.553-0.365-2.304-0.632l-0.336-0.112c-0.785-0.293-1.547-0.643-2.28-1.048
			c-1.109-0.61-2.152-1.334-3.112-2.16c-0.048-0.04-0.112-0.064-0.16-0.104c-3.118-2.849-5.049-6.768-5.408-10.976
			c-0.004-0.075-0.004-0.149,0-0.224c0-0.136-0.152-1.152-0.168-1.288c0.006-1.244,0.151-2.484,0.432-3.696
			c0.064-0.312,0.184-0.592,0.272-0.888c0.247-0.907,0.568-1.793,0.96-2.648c0.12-0.248,0.264-0.488,0.392-0.728
			c0.495-0.923,1.074-1.798,1.728-2.616l0.256-0.32c0.82-0.967,1.742-1.842,2.752-2.608l0.104-0.104
			c2.82-2.132,6.257-3.289,9.792-3.296c1.393,0.018,2.777,0.214,4.12,0.584c0.072,0,0.128,0.08,0.2,0.096
			c4.429,1.245,8.153,4.253,10.304,8.32c0.08,0.152,0.168,0.296,0.24,0.448c0.671,1.33,1.155,2.746,1.44,4.208
			c0.203,1.055,0.307,2.126,0.312,3.2C256.59,219.957,254.608,224.46,251.13,227.652z M407.994,309.364
			c-0.238,0.437-0.647,0.755-1.128,0.88c-0.457,0.124-0.945,0.058-1.352-0.184l-136.736-79.688
			c1.657-3.157,2.781-6.565,3.328-10.088c54.202,11.747,102.381,42.573,135.76,86.864
			C408.342,307.796,408.392,308.664,407.994,309.364z"/>
	</g>
</g>
<g>
	<g>
		<path d="M432.058,408.116c-30.913,0.035-55.965,25.087-56,56c0,4.418,3.582,8,8,8c30.913-0.035,55.965-25.087,56-56
			C440.058,411.697,436.476,408.116,432.058,408.116z M393.082,455.092c3.477-14.867,15.085-26.475,29.952-29.952
			C419.556,440.006,407.948,451.614,393.082,455.092z"/>
	</g>
</g>
<g>
	<g>
		<path d="M424.058,112.116c-4.418,0-8,3.582-8,8c0.035,30.913,25.087,55.965,56,56c4.418,0,8-3.582,8-8
			C480.023,137.202,454.971,112.151,424.058,112.116z M433.082,129.14c14.867,3.477,26.475,15.085,29.952,29.952
			C448.167,155.614,436.559,144.006,433.082,129.14z"/>
	</g>
</g>
<g>
	<g>
		<path d="M72.058,360.116c-30.913,0.035-55.965,25.087-56,56c0,4.418,3.582,8,8,8c30.913-0.035,55.965-25.087,56-56
			C80.058,363.697,76.476,360.116,72.058,360.116z M33.082,407.092c3.477-14.867,15.085-26.475,29.952-29.952
			C59.556,392.006,47.948,403.614,33.082,407.092z"/>
	</g>
</g>
<g>
	<g>
		<path d="M456.058,24.116h-10.176c-6.532-18.68-26.97-28.529-45.651-21.997c-10.299,3.601-18.396,11.698-21.997,21.997h-10.176
			c-13.255,0-24,10.745-24,24s10.745,24,24,24h88c13.255,0,24-10.745,24-24S469.313,24.116,456.058,24.116z M456.058,56.116h-88
			c-4.418,0-8-3.582-8-8s3.582-8,8-8h16.408c3.977,0.001,7.351-2.92,7.92-6.856c1.49-10.865,11.504-18.465,22.369-16.975
			c8.826,1.21,15.765,8.15,16.975,16.975c0.569,3.936,3.943,6.857,7.92,6.856h16.408c4.418,0,8,3.582,8,8
			S460.476,56.116,456.058,56.116z"/>
	</g>
</g>
<g>
	<g>
		<path d="M160.058,80.116h-8.176c-2.097-22.644-21.083-39.973-43.824-40C94.726,40.08,82.115,46.167,73.85,56.628
			c-17.141-2.747-33.801,7.131-39.616,23.488H24.058c-13.255,0-24,10.745-24,24s10.745,24,24,24h136c13.255,0,24-10.745,24-24
			S173.313,80.116,160.058,80.116z M160.058,112.116h-136c-4.418,0-8-3.582-8-8s3.582-8,8-8h16.408
			c3.977,0.001,7.351-2.92,7.92-6.856c1.413-9.794,9.776-17.083,19.672-17.144c2.229,0.032,4.437,0.444,6.528,1.216
			c3.589,1.255,7.565-0.19,9.512-3.456c4.974-8.519,14.095-13.758,23.96-13.76c15.464,0,28,12.536,28,28
			c-0.022,0.579-0.081,1.156-0.176,1.728l-0.184,1.384c-0.49,4.391,2.672,8.348,7.063,8.839c0.295,0.033,0.592,0.049,0.889,0.049
			h16.408c4.418,0,8,3.582,8,8S164.476,112.116,160.058,112.116z"/>
	</g>
</g>
<g>
	<g>
		<path d="M185.066,48.476c-7.439,2.326-14.723,5.121-21.808,8.368l6.688,14.544c6.447-2.969,13.08-5.518,19.856-7.632
			L185.066,48.476z"/>
	</g>
</g>
<g>
	<g>
		<path d="M90.37,147.756l-14.248-7.28c-13.271,25.878-20.15,54.558-20.064,83.64c-0.011,16.964,2.321,33.849,6.928,50.176
			l15.392-4.352c-4.202-14.912-6.329-30.331-6.32-45.824C71.98,197.566,78.259,171.383,90.37,147.756z"/>
	</g>
</g>
<g>
	<g>
		<path d="M110.458,331.02l-12.344,10.192c25.712,31.065,60.874,52.873,100.128,62.104l3.632-15.584
			C166.034,379.3,133.932,359.385,110.458,331.02z"/>
	</g>
</g>
<g>
	<g>
		<path d="M375.602,323.388c-23.721,32.398-58.259,55.232-97.36,64.368l3.632,15.584c42.826-10.006,80.655-35.014,106.64-70.496
			L375.602,323.388z"/>
	</g>
</g>
<g>
	<g>
		<path d="M281.515,44.822c-2.657-0.617-5.327-1.175-8.009-1.674l-2.896,15.736c79.688,14.689,137.512,84.201,137.448,165.232
			c0.001,12.854-1.459,25.667-4.352,38.192l15.552,3.616C442.277,166.831,380.607,67.841,281.515,44.822z"/>
	</g>
</g>
<g>
	<g>
		<path d="M126.954,148.572l-13.296-8.912c-23.17,34.751-31.063,77.489-21.832,118.224l15.608-3.536
			c-2.247-9.92-3.379-20.06-3.376-30.232C104.008,197.218,111.979,170.916,126.954,148.572z"/>
	</g>
</g>
<g>
	<g>
		<path d="M145.986,322.34l-11.064,11.552c17.745,16.985,39.33,29.432,62.92,36.28l4.432-15.376
			C181.171,348.667,161.861,337.533,145.986,322.34z"/>
	</g>
</g>
<g>
	<g>
		<path d="M345.842,309.604c-17.473,21.706-41.221,37.488-68,45.192l4.432,15.376c29.931-8.608,56.474-26.249,76-50.512
			L345.842,309.604z"/>
	</g>
</g>
<g>
	<g>
		<path d="M273.834,75.884l-3.552,15.6c62.06,13.837,106.092,69.049,105.776,132.632c0.01,5.053-0.257,10.104-0.8,15.128
			l15.912,1.744c0.601-5.604,0.897-11.236,0.888-16.872C392.395,153.057,343.187,91.36,273.834,75.884z"/>
	</g>
</g>
<g>
</g>
<g>
</g>
<g>
</g>
<g>
</g>
<g>
</g>
<g>
</g>
<g>
</g>
<g>
</g>
<g>
</g>
<g>
</g>
<g>
</g>
<g>
</g>
<g>
</g>
<g>
</g>
<g>
</g>
</svg>
