<?xml version="1.0" encoding="iso-8859-1"?>
<!-- Generator: Adobe Illustrator 19.0.0, SVG Export Plug-In . SVG Version: 6.00 Build 0)  -->
<svg version="1.1" id="Capa_1" xmlns="http://www.w3.org/2000/svg" xmlns:xlink="http://www.w3.org/1999/xlink" x="0px" y="0px"
	 viewBox="0 0 512 512" style="enable-background:new 0 0 512 512;" xml:space="preserve">
<g>
	<g>
		<path d="M305.067,181.44c-58.863-27.099-128.549-1.349-155.648,57.515c-27.099,58.863-1.349,128.549,57.515,155.648
			c3.85,1.68,6.356,5.463,6.4,9.664v33.067V480c0,17.673,14.327,32,32,32h21.333c17.673,0,32-14.327,32-32v-42.667v-0.001v-33.044
			c0.036-4.208,2.543-8.002,6.4-9.685c25.416-11.701,45.814-32.099,57.515-57.515C389.68,278.225,363.93,208.539,305.067,181.44z
			 M266.667,490.667h-21.333c-5.891,0-10.667-4.776-10.667-10.667h42.667C277.333,485.891,272.558,490.667,266.667,490.667z
			 M234.666,458.667V448h42.667v10.667H234.666z M296.128,375.211c-11.386,5.202-18.719,16.538-18.795,29.056v22.4h-10.667V309.333
			H288c17.673,0,32-14.327,32-32v-10.667h-21.333v10.667c0,5.891-4.776,10.667-10.667,10.667h-32h-32
			c-5.891,0-10.667-4.776-10.667-10.667v-10.667H192v10.667c0,17.673,14.327,32,32,32h21.333v117.333h-10.667v-22.4
			c-0.08-12.5-7.398-23.82-18.763-29.024c-30.513-14-51.496-42.924-55.336-76.275c-6.063-52.672,31.72-100.285,84.392-106.349
			c27.28-3.261,54.639,5.427,75.04,23.829c9.808,8.773,17.708,19.469,23.208,31.423
			C365.371,296.036,344.293,353.048,296.128,375.211z"/>
	</g>
</g>
<g>
	<g>
		<path d="M106.666,0C47.851,0,0,43.072,0,96s47.851,96,106.667,96c58.816,0,106.666-43.072,106.666-96S165.482,0,106.666,0z
			 M106.667,170.667c-47.05,0-85.334-33.494-85.334-74.667s38.283-74.667,85.333-74.667S192,54.827,192,96
			S153.717,170.667,106.667,170.667z"/>
	</g>
</g>
<g>
	<g>
		<path d="M480,0H288c-17.673,0-32,14.327-32,32v117.333h21.333V32c0-5.891,4.776-10.667,10.667-10.667h192
			c5.891,0,10.667,4.776,10.667,10.667v202.667c0,5.891-4.776,10.667-10.667,10.667h-85.333v21.333H480c17.673,0,32-14.327,32-32V32
			C512,14.327,497.673,0,480,0z"/>
	</g>
</g>
<g>
	<g>
		<path d="M146.209,387.126l-42.668-42.667l-15.083,15.083L112.917,384h-38.25C68.776,384,64,379.224,64,373.333V202.667H42.667
			v170.667c0,17.673,14.327,32,32,32h38.251l-24.459,24.459l15.083,15.083l42.667-42.667
			C150.373,398.044,150.373,391.292,146.209,387.126z"/>
	</g>
</g>
<g>
	<g>
		<path d="M466.209,280.458c-4.166-4.163-10.918-4.163-15.084,0.001l-42.667,42.667l15.083,15.083L448,313.749v91.584
			c-0.035,29.441-23.893,53.298-53.333,53.333h-32V480h32c41.218-0.047,74.62-33.449,74.667-74.667v-91.584l24.459,24.459
			l15.083-15.083L466.209,280.458z"/>
	</g>
</g>
<g>
	<g>
		<path d="M431.082,106.667l-18.208-18.208c-4.165-4.164-10.917-4.164-15.083,0L352,134.251l-24.459-24.459
			c-2-2-4.713-3.125-7.541-3.125h-21.333V128h16.917l28.875,28.875c2,2,4.713,3.125,7.541,3.125
			c2.829-0.001,5.541-1.125,7.541-3.125l45.792-45.792l13.792,13.792c2,2,4.713,3.125,7.541,3.125h42.667v-21.333H431.082z"/>
	</g>
</g>
<g>
	<g>
		<rect x="320" y="458.67" width="21.333" height="21.333"/>
	</g>
</g>
<g>
	<g>
		<rect x="96" y="85.33" width="21.333" height="21.333"/>
	</g>
</g>
<g>
	<g>
		<rect x="138.67" y="85.33" width="21.333" height="21.333"/>
	</g>
</g>
<g>
	<g>
		<rect x="53.33" y="85.33" width="21.333" height="21.333"/>
	</g>
</g>
<g>
</g>
<g>
</g>
<g>
</g>
<g>
</g>
<g>
</g>
<g>
</g>
<g>
</g>
<g>
</g>
<g>
</g>
<g>
</g>
<g>
</g>
<g>
</g>
<g>
</g>
<g>
</g>
<g>
</g>
</svg>
