<?xml version="1.0" encoding="iso-8859-1"?>
<!-- Generator: Adobe Illustrator 19.0.0, SVG Export Plug-In . SVG Version: 6.00 Build 0)  -->
<svg version="1.1" id="Layer_1" xmlns="http://www.w3.org/2000/svg" xmlns:xlink="http://www.w3.org/1999/xlink" x="0px" y="0px"
	 viewBox="0 0 512 512" style="enable-background:new 0 0 512 512;" xml:space="preserve">
<path style="fill:#EDEDED;" d="M467.478,489.739H66.783c-24.588,0-44.522-19.934-44.522-44.522V44.522
	c0-12.295,9.966-22.261,22.261-22.261h422.957c12.295,0,22.261,9.966,22.261,22.261v422.957
	C489.739,479.773,479.773,489.739,467.478,489.739z"/>
<path style="fill:#777777;" d="M509.555,487.294l-22.261,22.261c-1.631,1.629-3.768,2.445-5.904,2.445
	c-2.136,0-4.273-0.815-5.904-2.445c-3.26-3.26-3.26-8.546,0-11.805l8.011-8.011H52.869c-16.877,0-30.609-13.731-30.609-30.609
	V28.501l-8.009,8.011c-3.261,3.26-8.546,3.26-11.806,0s-3.26-8.546,0-11.805L24.706,2.445c3.261-3.26,8.546-3.26,11.806,0
	l22.261,22.261c3.26,3.26,3.26,8.546,0,11.805c-1.631,1.629-3.768,2.445-5.904,2.445s-4.273-0.815-5.904-2.445l-8.009-8.011v430.63
	c0,7.672,6.241,13.913,13.913,13.913h430.629l-8.011-8.011c-3.26-3.26-3.26-8.546,0-11.805c3.261-3.26,8.546-3.26,11.806,0
	l22.261,22.261C512.815,478.748,512.815,484.035,509.555,487.294z"/>
<path style="fill:#FFBC00;" d="M77.913,411.826V22.261C77.913,9.966,87.879,0,100.174,0h44.522c12.295,0,22.261,9.966,22.261,22.261
	v389.565c0,12.295-9.966,22.261-22.261,22.261h-44.522C87.879,434.087,77.913,424.121,77.913,411.826z"/>
<path style="fill:#73A4BC;" d="M411.826,434.087h-44.522c-12.295,0-22.261-9.966-22.261-22.261v-256
	c0-12.295,9.966-22.261,22.261-22.261h44.522c12.295,0,22.261,9.966,22.261,22.261v256
	C434.087,424.121,424.121,434.087,411.826,434.087z"/>
<path style="fill:#92B703;" d="M211.478,411.826V278.261c0-12.295,9.966-22.261,22.261-22.261h44.522
	c12.295,0,22.261,9.966,22.261,22.261v133.565c0,12.295-9.966,22.261-22.261,22.261h-44.522
	C221.444,434.087,211.478,424.121,211.478,411.826z"/>
<path style="fill:#FF6029;" d="M509.555,61.556l-22.261,22.261c-1.631,1.629-3.768,2.444-5.904,2.444
	c-2.136,0-4.273-0.815-5.904-2.444c-3.26-3.261-3.26-8.546,0-11.806l8.011-8.009H361.333l-97.867,195.733
	c-1.051,2.104-2.942,3.665-5.206,4.302c-0.742,0.209-1.504,0.312-2.261,0.312c-1.55,0-3.084-0.432-4.424-1.269l-87.014-54.383H64
	c-4.611,0-8.348-3.736-8.348-8.348S59.389,192,64,192h102.957c1.564,0,3.098,0.44,4.424,1.269l81.259,50.787l96.069-192.137
	c1.415-2.827,4.304-4.615,7.466-4.615h127.324l-8.011-8.009c-3.26-3.261-3.26-8.546,0-11.806c3.261-3.259,8.546-3.259,11.806,0
	l22.261,22.261C512.815,53.01,512.815,58.295,509.555,61.556z"/>
<path style="fill:#B7441C;" d="M189.217,200.348c0,12.295-9.966,22.261-22.261,22.261c-12.295,0-22.261-9.966-22.261-22.261
	c0-12.295,9.966-22.261,22.261-22.261C179.251,178.087,189.217,188.053,189.217,200.348z M256,233.739
	c-12.295,0-22.261,9.966-22.261,22.261c0,12.295,9.966,22.261,22.261,22.261s22.261-9.966,22.261-22.261
	C278.261,243.705,268.295,233.739,256,233.739z M356.174,33.391c-12.295,0-22.261,9.966-22.261,22.261s9.966,22.261,22.261,22.261
	s22.261-9.966,22.261-22.261S368.469,33.391,356.174,33.391z"/>
<g>
</g>
<g>
</g>
<g>
</g>
<g>
</g>
<g>
</g>
<g>
</g>
<g>
</g>
<g>
</g>
<g>
</g>
<g>
</g>
<g>
</g>
<g>
</g>
<g>
</g>
<g>
</g>
<g>
</g>
</svg>
