<?xml version="1.0" encoding="iso-8859-1"?>
<!-- Generator: Adobe Illustrator 19.0.0, SVG Export Plug-In . SVG Version: 6.00 Build 0)  -->
<svg version="1.1" id="Layer_1" xmlns="http://www.w3.org/2000/svg" xmlns:xlink="http://www.w3.org/1999/xlink" x="0px" y="0px"
	 viewBox="0 0 512 512" style="enable-background:new 0 0 512 512;" xml:space="preserve">
<path style="fill:#777777;" d="M415.476,173.253l-142.825,82.748l134.477,77.928c3.989,2.312,5.349,7.42,3.038,11.409
	c-1.548,2.671-4.351,4.164-7.23,4.164c-1.42,0-2.861-0.363-4.177-1.126l-134.41-77.89v152.471c0,4.61-3.738,8.348-8.348,8.348
	c-4.61,0-8.348-3.738-8.348-8.348V270.484l-142.758,82.71c-1.318,0.764-2.757,1.126-4.177,1.126c-2.881,0-5.682-1.493-7.231-4.165
	c-2.311-3.989-0.951-9.097,3.039-11.409l142.825-82.748l-134.477-77.928c-3.989-2.312-5.349-7.42-3.037-11.409
	c2.312-3.989,7.421-5.349,11.409-3.037l134.409,77.89V89.043c0-4.61,3.738-8.348,8.348-8.348c4.61,0,8.348,3.738,8.348,8.348
	v152.472l142.758-82.709c3.988-2.311,9.096-0.951,11.409,3.039C420.825,165.833,419.465,170.941,415.476,173.253z"/>
<path style="fill:#FF6029;" d="M344.657,256c0,49.178-39.693,89.043-88.657,89.043S167.343,305.178,167.343,256
	s39.693-89.043,88.657-89.043S344.657,206.822,344.657,256z"/>
<path style="fill:#B7441C;" d="M300.135,256c0,24.481-19.76,44.328-44.135,44.328S211.864,280.481,211.864,256
	s19.76-44.328,44.136-44.328S300.135,231.519,300.135,256z"/>
<path style="fill:#DAF781;" d="M311.411,55.652c0,30.736-24.809,55.652-55.411,55.652c-30.603,0-55.411-24.917-55.411-55.652
	S225.398,0,256,0S311.411,24.917,311.411,55.652z M256,400.696c-30.603,0-55.411,24.917-55.411,55.652S225.398,512,256,512
	s55.411-24.917,55.411-55.652S286.602,400.696,256,400.696z M110.951,107.63C84.449,92.262,50.56,101.382,35.259,128
	s-6.221,60.654,20.282,76.022s60.392,6.248,75.693-20.37C146.534,157.034,137.454,122.998,110.951,107.63z M456.459,307.978
	c-26.503-15.368-60.392-6.247-75.693,20.37c-15.301,26.618-6.221,60.654,20.282,76.022s60.392,6.248,75.693-20.37
	C492.042,357.382,482.962,323.346,456.459,307.978z M55.541,307.978C29.038,323.346,19.958,357.382,35.259,384
	c15.301,26.618,49.19,35.738,75.693,20.37s35.583-49.405,20.282-76.022C115.932,301.729,82.044,292.61,55.541,307.978z
	 M456.459,204.022c26.503-15.368,35.583-49.405,20.282-76.022c-15.301-26.618-49.19-35.738-75.693-20.37
	s-35.583,49.405-20.282,76.022C396.068,210.271,429.956,219.39,456.459,204.022z"/>
<path style="fill:#92B703;" d="M111.958,172.475c-9.155,15.927-29.432,21.383-45.289,12.188
	c-15.858-9.195-21.29-29.56-12.136-45.486c9.155-15.927,29.431-21.383,45.289-12.188
	C115.68,136.184,121.114,156.548,111.958,172.475z M99.823,327.337c-15.858-9.195-36.134-3.739-45.289,12.188
	c-9.155,15.927-3.722,36.291,12.136,45.486s36.134,3.739,45.289-12.188C121.114,356.896,115.68,336.532,99.823,327.337z
	 M412.177,184.663c15.858,9.195,36.134,3.739,45.289-12.188s3.722-36.291-12.135-45.486c-15.858-9.195-36.134-3.739-45.289,12.188
	S396.32,175.468,412.177,184.663z M445.331,327.337c-15.858-9.195-36.134-3.739-45.289,12.188
	c-9.155,15.927-3.722,36.291,12.135,45.486c15.858,9.195,36.134,3.739,45.289-12.188
	C466.621,356.896,461.187,336.532,445.331,327.337z M272.577,427.511c-15.858-9.195-36.134-3.739-45.289,12.188
	c-9.155,15.927-3.722,36.291,12.135,45.486c15.858,9.195,36.134,3.739,45.289-12.188
	C293.867,457.07,288.434,436.706,272.577,427.511z M272.577,26.815c-15.858-9.195-36.134-3.739-45.289,12.188
	c-9.155,15.927-3.722,36.291,12.135,45.486s36.134,3.739,45.289-12.188C293.867,56.375,288.434,36.01,272.577,26.815z"/>
<g>
</g>
<g>
</g>
<g>
</g>
<g>
</g>
<g>
</g>
<g>
</g>
<g>
</g>
<g>
</g>
<g>
</g>
<g>
</g>
<g>
</g>
<g>
</g>
<g>
</g>
<g>
</g>
<g>
</g>
</svg>
