<?xml version="1.0" encoding="iso-8859-1"?>
<!-- Generator: Adobe Illustrator 19.0.0, SVG Export Plug-In . SVG Version: 6.00 Build 0)  -->
<svg version="1.1" id="Capa_1" xmlns="http://www.w3.org/2000/svg" xmlns:xlink="http://www.w3.org/1999/xlink" x="0px" y="0px"
	 viewBox="0 0 512 512" style="enable-background:new 0 0 512 512;" xml:space="preserve">
<path style="fill:#D9EEF7;" d="M480,85.333v277.333c-0.035,11.767-9.566,21.298-21.333,21.333H53.333
	c-11.767-0.035-21.298-9.566-21.333-21.333V53.333h448V85.333z"/>
<g>
	<path style="fill:#AAC4DA;" d="M234.667,437.333h42.667v64h-42.667V437.333z"/>
	<path style="fill:#AAC4DA;" d="M501.333,10.667v42.667H480H32H10.667V10.667H501.333z"/>
</g>
<path style="fill:#F2F2F2;" d="M245.333,117.333H352V160H245.333V117.333z"/>
<g>
	<circle style="fill:#31E8BB;" cx="330.667" cy="234.667" r="21.333"/>
	<circle style="fill:#31E8BB;" cx="256" cy="309.333" r="21.333"/>
	<circle style="fill:#31E8BB;" cx="160" cy="213.333" r="21.333"/>
</g>
<g>
	<path style="fill:#4C5B66;" d="M501.333,0H10.667C4.776,0,0,4.776,0,10.667v42.667C0,59.224,4.776,64,10.667,64h490.667
		C507.224,64,512,59.224,512,53.333V10.667C512,4.776,507.224,0,501.333,0z M490.667,42.667H21.333V21.333h469.333V42.667z"/>
	<path style="fill:#4C5B66;" d="M469.333,362.667c0,5.891-4.776,10.667-10.667,10.667H53.333c-5.891,0-10.667-4.776-10.667-10.667
		V85.333H21.333v277.333c0,17.673,14.327,32,32,32h192v32h-10.667c-5.891,0-10.667,4.776-10.667,10.667v64
		c0,5.891,4.776,10.667,10.667,10.667h42.667c5.891,0,10.667-4.776,10.667-10.667v-64c0-5.891-4.776-10.667-10.667-10.667h-10.667
		v-32h192c17.673,0,32-14.327,32-32V85.333h-21.333V362.667z M266.667,490.667h-21.333V448h21.333V490.667z"/>
	<path style="fill:#4C5B66;" d="M64,266.667V288h32c2.825,0.006,5.536-1.115,7.531-3.115c0,0,24.16-24.075,42.827-42.667
		c8.621,4.249,18.728,4.249,27.349,0l53.493,53.408c-2.088,4.269-3.182,8.955-3.2,13.707c0,17.673,14.327,32,32,32s32-14.327,32-32
		l0,0c-0.018-4.752-1.112-9.438-3.2-13.707l32.16-32.16c8.636,4.282,18.777,4.282,27.413,0l64.085,64.085
		c2.002,1.997,4.714,3.117,7.541,3.115h32v-21.333h-27.584l-60.949-60.96c2.088-4.269,3.182-8.955,3.2-13.707
		c0-17.673-14.327-32-32-32c-17.673,0-32,14.327-32,32c0.018,4.752,1.112,9.438,3.2,13.707l-32.16,32.16
		c-8.636-4.282-18.777-4.282-27.413,0L188.8,227.04c2.088-4.269,3.182-8.955,3.2-13.707c0-17.673-14.327-32-32-32s-32,14.327-32,32
		c0.013,4.773,1.107,9.481,3.2,13.771c-14.549,14.581-32.491,32.469-39.605,39.563H64z M330.667,224
		c5.891,0,10.667,4.776,10.667,10.667s-4.776,10.667-10.667,10.667c-5.891,0-10.667-4.776-10.667-10.667S324.776,224,330.667,224z
		 M256,298.667c5.891,0,10.667,4.776,10.667,10.667S261.891,320,256,320c-5.891,0-10.667-4.776-10.667-10.667
		S250.109,298.667,256,298.667z M160,202.667c5.891,0,10.667,4.776,10.667,10.667c0,5.891-4.776,10.667-10.667,10.667
		c-5.891,0-10.667-4.776-10.667-10.667C149.333,207.442,154.109,202.667,160,202.667z"/>
	<path style="fill:#4C5B66;" d="M170.667,128h42.667v-21.333h-42.667c-11.538-0.244-21.089,8.911-21.333,20.449
		c-0.006,0.295-0.006,0.589,0,0.884v32h21.333V128z"/>
	<path style="fill:#4C5B66;" d="M352,170.667c5.891,0,10.667-4.776,10.667-10.667v-42.667c0-5.891-4.776-10.667-10.667-10.667
		H245.333c-5.891,0-10.667,4.776-10.667,10.667V160c0,5.891,4.776,10.667,10.667,10.667H352z M256,128h85.333v21.333H256V128z"/>
</g>
<g>
</g>
<g>
</g>
<g>
</g>
<g>
</g>
<g>
</g>
<g>
</g>
<g>
</g>
<g>
</g>
<g>
</g>
<g>
</g>
<g>
</g>
<g>
</g>
<g>
</g>
<g>
</g>
<g>
</g>
</svg>
